<svg xmlns="http://www.w3.org/2000/svg" xmlns:xlink="http://www.w3.org/1999/xlink" id="Calque_1" x="0px" y="0px" viewBox="0 0 125 52.8" style="enable-background:new 0 0 125 52.8;" xml:space="preserve"><style type="text/css">	.st0{fill:#355C6E;}	.st1{fill:#6B808E;}	.st2{fill:#8199A8;}	.st3{fill:#D72216;}</style><title>Logo Reden</title><polygon class="st0" points="18.4,49.5 9.4,52.8 0,39.9 9.9,39.9 "></polygon><polygon class="st1" points="28,46 21.9,48.2 13.9,39.9 21.6,39.9 "></polygon><polygon class="st2" points="35.1,43.3 31,44.8 25,39.9 30.7,39.9 "></polygon><path class="st3" d="M17.6,0C7.9,0,0,7.8,0,17.5c0,9.7,7.8,17.6,17.5,17.6s17.6-7.8,17.6-17.5c0,0,0,0,0,0C35.1,7.9,27.2,0,17.6,0  C17.6,0,17.6,0,17.6,0 M17.6,29.7c-6.7,0-12.2-5.5-12.2-12.2c0-6.7,5.5-12.2,12.2-12.2c6.7,0,12.2,5.5,12.2,12.2  S24.3,29.7,17.6,29.7L17.6,29.7"></path><path class="st3" d="M57.7,34.5c-0.2,0-0.4-0.1-0.4-0.3l-3.1-6.7h-2.4c-0.1,0-0.1,0-0.2,0.1c0,0,0,0,0,0v6.5c0,0.1-0.1,0.3-0.2,0.3  c0,0,0,0,0,0h-3.4c-0.1,0-0.3-0.1-0.3-0.2c0,0,0,0,0,0V16.6c0-0.1,0.1-0.3,0.2-0.3c0,0,0,0,0,0h7.3c3.7,0,6.2,2.3,6.2,5.7  c0.1,2.2-1.2,4.2-3.2,5.1l3.6,7.2c0.1,0.1,0,0.2-0.1,0.3c0,0-0.1,0-0.1,0H57.7 M57.4,21.9c0-1.2-1-2.2-2.2-2.3c-0.1,0-0.2,0-0.3,0  h-3.2c-0.1,0-0.1,0-0.2,0.1c0,0,0,0,0,0v4.2c0,0.1,0,0.1,0.1,0.2c0,0,0,0,0,0h3.2c1.2,0.1,2.3-0.8,2.5-2  C57.4,22.1,57.4,22,57.4,21.9"></path><path class="st3" d="M64.2,16.6c0-0.1,0.1-0.3,0.2-0.3c0,0,0,0,0,0h11.7c0.1,0,0.3,0.1,0.3,0.2c0,0,0,0,0,0v2.9  c0,0.1-0.1,0.3-0.2,0.3c0,0,0,0,0,0h-7.9c-0.1,0-0.1,0-0.2,0.1c0,0,0,0,0,0v3.6c0,0.1,0,0.1,0.1,0.2c0,0,0,0,0,0h6.6  c0.1,0,0.3,0.1,0.3,0.2c0,0,0,0,0,0v2.8c0,0.1-0.1,0.3-0.2,0.3c0,0,0,0,0,0h-6.6c-0.1,0-0.1,0-0.2,0.1c0,0,0,0,0,0v3.8  c0,0.1,0,0.1,0.1,0.2c0,0,0,0,0,0h7.9c0.1,0,0.3,0.1,0.3,0.2c0,0,0,0,0,0v2.9c0,0.1-0.1,0.3-0.2,0.3c0,0,0,0,0,0H64.5  c-0.1,0-0.3-0.1-0.3-0.2c0,0,0,0,0,0V16.6"></path><path class="st3" d="M79.4,16.6c0-0.1,0.1-0.3,0.2-0.3c0,0,0,0,0,0h6.8c3.2,0,5.4,1.4,6.3,4.1c0.4,1.6,0.6,3.3,0.5,5  c0.1,1.7-0.1,3.4-0.5,5c-0.9,2.7-3.1,4.1-6.3,4.1h-6.8c-0.1,0-0.3-0.1-0.3-0.2c0,0,0,0,0,0L79.4,16.6 M83.6,31h2.1  c1.8,0,2.9-0.5,3.4-2c0.3-1.2,0.4-2.4,0.3-3.6c0.1-1.2,0-2.4-0.3-3.6c-0.5-1.5-1.6-2-3.4-2h-2.1c-0.1,0-0.1,0-0.2,0.1c0,0,0,0,0,0  v10.8C83.4,30.9,83.4,31,83.6,31C83.5,31,83.5,31,83.6,31"></path><path class="st3" d="M96,16.6c0-0.1,0.1-0.3,0.2-0.3c0,0,0,0,0,0H108c0.1,0,0.3,0.1,0.3,0.2c0,0,0,0,0,0v2.9c0,0.1-0.1,0.3-0.2,0.3  c0,0,0,0,0,0h-7.9c-0.1,0-0.2,0-0.2,0.1c0,0,0,0.1,0,0.1v3.6c0,0.1,0,0.1,0.1,0.2c0,0,0,0,0,0h6.5c0.1,0,0.3,0.1,0.3,0.2  c0,0,0,0,0,0v2.8c0,0.1-0.1,0.3-0.2,0.3c0,0,0,0,0,0h-6.5c-0.1,0-0.1,0-0.2,0.1c0,0,0,0,0,0v3.8c0,0.1,0,0.1,0.1,0.2c0,0,0,0,0,0  h7.9c0.1,0,0.3,0.1,0.3,0.2c0,0,0,0,0,0v2.9c0,0.1-0.1,0.3-0.2,0.3c0,0,0,0,0,0H96.3c-0.1,0-0.3-0.1-0.3-0.2c0,0,0,0,0,0L96,16.6"></path><path class="st3" d="M110.9,16.6c0-0.1,0.1-0.3,0.2-0.3c0,0,0,0,0,0h3.2c0.2,0,0.4,0.1,0.5,0.3l6.4,11.5h0.1V16.6  c0-0.1,0.1-0.3,0.2-0.3c0,0,0,0,0,0h3c0.1,0,0.3,0.1,0.3,0.2c0,0,0,0,0,0v17.7c0,0.1-0.1,0.3-0.2,0.3c0,0,0,0,0,0h-3.2  c-0.2,0-0.4-0.1-0.5-0.3l-6.4-11.4h-0.1v11.4c0,0.1-0.1,0.3-0.2,0.3c0,0,0,0,0,0h-3c-0.1,0-0.3-0.1-0.3-0.2c0,0,0,0,0,0L110.9,16.6"></path></svg>